<?xml version="1.0" encoding="utf-8"?>
<!-- Generator: Adobe Illustrator 23.0.1, SVG Export Plug-In . SVG Version: 6.00 Build 0)  -->
<svg version="1.1" id="Layer_1" xmlns="http://www.w3.org/2000/svg" xmlns:xlink="http://www.w3.org/1999/xlink" x="0px" y="0px"
	 viewBox="0 0 511.9 511.9" style="enable-background:new 0 0 511.9 511.9;" xml:space="preserve">
<style type="text/css">
	.st0{fill:#CCD0D2;}
	.st1{fill:#00A4E1;}
	.st2{fill:#FF0076;}
	.st3{fill:#FFFFFF;}
	.st4{fill:#808080;}
</style>
<g>
	<polyline class="st0" points="432.7,469.8 411.2,469.8 411.2,491.4 432.7,491.4 	"/>
	<path class="st0" d="M165.4,239.2h-42.1v21.5h42.1V239.2z M219.1,239.2H177v21.5h42.1V239.2z M276.2,243.5
		c-7.5-2.8-15.5-4.3-23.9-4.3h-21.5v21.5h21.5c5.8,0,11.3,1,16.4,2.9L276.2,243.5L276.2,243.5z M318,288.6
		c-4.7-16.4-15.4-30.2-29.5-39l-11.4,18.2c9.7,6.1,17,15.6,20.2,26.7L318,288.6L318,288.6z M306.7,349c8.7-11.5,13.9-25.9,13.9-41.4
		l0,0c0-1.9-0.1-3.7-0.2-5.5l-21.4,1.7c0.1,1.3,0.2,2.5,0.2,3.8l0,0c0,10.7-3.5,20.5-9.5,28.4L306.7,349L306.7,349z M251.6,376h0.6
		c8.6,0,16.9-1.6,24.5-4.5c7.6-2.9,14.6-7.2,20.6-12.5l-14.2-16.2c-4.1,3.6-8.9,6.5-14.1,8.5c-5.2,2-10.9,3.1-16.8,3.1h-0.6V376
		L251.6,376z M197.9,376h42.1v-21.5h-42.1V376z M144.8,376.1c0.9-0.1,1.8-0.1,2.8-0.1h38.7v-21.5h-38.7c-1.3,0-2.7,0-4,0.1
		L144.8,376.1L144.8,376.1z M108.3,397.2c6.3-9.5,15.9-16.6,27.2-19.6l-5.5-20.8c-16.5,4.4-30.5,14.7-39.6,28.6L108.3,397.2
		L108.3,397.2z M103.5,439.1c-1.8-5-2.8-10.4-2.8-16.1l0,0c0-6.2,1.2-12,3.3-17.4l-20-8c-3.1,7.8-4.9,16.4-4.9,25.3l0,0
		c0,8.2,1.5,16.2,4.2,23.5L103.5,439.1L103.5,439.1z M134.2,467.9c-11.2-3.3-20.6-10.7-26.6-20.4l-18.3,11.3
		c8.7,14.2,22.5,24.9,38.8,29.7L134.2,467.9z M184.7,469.8h-37.1c-1.4,0-2.7-0.1-4.1-0.2l-1.8,21.4c2,0.2,3.9,0.3,5.9,0.3h37.1
		V469.8L184.7,469.8z M238.4,469.8h-42.1v21.5h42.1V469.8z M292.2,469.8H250v21.5h42.1V469.8z M345.9,469.8h-42.1v21.5h42.1
		L345.9,469.8L345.9,469.8z M399.6,469.8h-42.1v21.5h42.1V469.8z"/>
	<polyline class="st0" points="111.4,239.2 89.9,239.2 89.9,260.7 111.4,260.7 	"/>
	<path class="st1" d="M169.9,79.6c0,11.8-2.9,23.6-8.8,34.4l-36.7,66.9l-26.2,47.7L35.4,114C20.1,86.1,25.1,51.4,47.6,28.9
		c7.5-7.5,16.2-13,25.5-16.4c8.1-3,16.6-4.6,25.2-4.6c18.3,0,36.7,7,50.7,21C162.7,42.7,169.9,61.1,169.9,79.6"/>
	<path class="st2" d="M494.2,307.1c0,11.8-2.9,23.6-8.8,34.4l-34.9,63.7l-27.9,50.8l-62.8-114.5c-15.3-27.9-10.4-62.6,12.2-85.1
		c8.1-8.1,17.7-13.9,27.9-17.3c7.4-2.5,15.1-3.7,22.8-3.7c18.3,0,36.7,7,50.7,21C487,270.2,494.2,288.6,494.2,307.1"/>
	<path class="st0" d="M474.5,307.7c0-28.7-23.2-51.9-51.9-51.9s-51.9,23.2-51.9,51.9s23.2,51.9,51.9,51.9
		C451.2,359.6,474.5,336.3,474.5,307.7"/>
	<path class="st3" d="M459.9,307.7c0-20.6-16.7-37.3-37.3-37.3c-20.6,0-37.3,16.7-37.3,37.3c0,20.6,16.7,37.3,37.3,37.3
		C443.2,345,459.9,328.3,459.9,307.7"/>
	<polyline class="st4" points="427.7,279.6 420.2,279.6 420.2,313.3 446.5,313.3 446.5,305.8 427.7,305.8 427.7,279.6 	"/>
	<path class="st3" d="M98.3,85.3c-1.1,0-2.2-0.2-3.2-0.6"/>
	<polyline class="st0" points="427.7,279.6 420.2,279.6 420.2,306.2 422.4,313.3 446.5,313.3 446.5,305.8 427.7,305.8 427.7,279.6 	
		"/>
</g>
<circle class="st3" cx="98.3" cy="85.3" r="43.4"/>
</svg>
