<svg id="Layer_1" data-name="Layer 1" xmlns="http://www.w3.org/2000/svg" viewBox="0 0 395.56 395.64"><defs><style>.cls-1{fill:#fff;}.cls-2{fill:#e1e6e9;}.cls-3{fill:#2ea2db;}.cls-4{fill:#3d6889;}</style></defs><title>list</title><rect class="cls-1" x="101.94" y="6.21" width="287.48" height="383.29" rx="14.81" ry="14.81"/><rect class="cls-2" x="126.63" y="30.9" width="238.03" height="333.83"/><circle class="cls-1" cx="108.73" cy="136.02" r="102.59"/><path class="cls-3" d="M108.76,213.91a76.15,76.15,0,0,1-26-4.33C42.57,195.36,21,150.88,35.19,110a78.12,78.12,0,0,1,73.57-51.91,76.15,76.15,0,0,1,26,4.33c40.21,14.22,61.8,58.7,47.58,99.56A78.69,78.69,0,0,1,108.76,213.91Z" transform="translate(-0.04)"/><path class="cls-1" d="M22.85,378.31h0C11.73,374,5.52,361.63,9.27,350.51l26.57-76c4.33-11.12,16.68-17.33,27.8-13.58h0c11.12,4.33,17.32,16.68,13.58,27.8L50.65,365.32A21.25,21.25,0,0,1,22.85,378.31Z" transform="translate(-0.04)"/><path class="cls-4" d="M72.3,258.39l6.21-17.91a75,75,0,0,0,17.33,3.68V380.83a14.81,14.81,0,0,0,14.81,14.81H380.79a14.81,14.81,0,0,0,14.81-14.81v-366A14.81,14.81,0,0,0,380.79,0H110.57A14.81,14.81,0,0,0,95.77,14.81v13c-40.79,5-76,32.78-89.6,71.76C-13,154,14.18,213.92,66.74,236.15l-6.21,17.91c-13-1.87-26,6.79-29.67,18.55l-27.22,76c-5,10.54.65,30.32,17.33,35.88,16.1,4.91,29.67-3.1,35.88-17.33l26.57-76C88.33,277.59,82.19,265.18,72.3,258.39Zm-.65,29.09L45.09,362.86a16.71,16.71,0,0,1-20.43,9.89c-3.68-1.23-13-8-9.24-20.43L42,276.3c5.56-13.58,18.55-9.89,20.43-9.89C68.55,268.28,75.4,278.82,71.66,287.48Zm5-60.64c-50.1-17.91-76.67-72.92-58.76-123a96.67,96.67,0,0,1,90.89-64.26,95.43,95.43,0,0,1,32.13,5.56c45.77,16.68,76.67,68.59,58.7,123C178.65,226.84,113.68,241.71,76.63,226.84ZM145.22,33.36c-11.77-4.33-36.46-6.21-37.11-6.21h0a14.8,14.8,0,0,1,14.8-14.8H368.38a14.81,14.81,0,0,1,14.81,14.81V368.48a14.81,14.81,0,0,1-14.81,14.81H122.92a14.81,14.81,0,0,1-14.81-14.81V244.82h.65a109.27,109.27,0,0,0,102.59-72.34C231.14,114.36,200.24,53.79,145.22,33.36Z" transform="translate(-0.04)"/><rect class="cls-4" x="255.86" y="272.61" width="12.35" height="12.35" rx="6.17" ry="6.17"/><rect class="cls-4" x="309" y="272.61" width="12.35" height="12.35" rx="6.17" ry="6.17"/><rect class="cls-4" x="255.86" y="110.68" width="12.35" height="12.35" rx="6.17" ry="6.17"/><rect class="cls-4" x="309" y="110.68" width="12.35" height="12.35" rx="6.17" ry="6.17"/><rect class="cls-4" x="255.86" y="191.61" width="12.35" height="12.35" rx="6.17" ry="6.17"/><rect class="cls-4" x="309" y="191.61" width="12.35" height="12.35" rx="6.17" ry="6.17"/><rect class="cls-4" x="240.99" y="70.46" width="94.58" height="12.35" rx="6.17" ry="6.17"/><path class="cls-4" d="M169.35,332.6,155.73,319a6.1,6.1,0,0,1,0-8.63l0,0a6.1,6.1,0,0,1,8.64,0l4.94,5a6.1,6.1,0,0,0,8.64,0l26-26a6.1,6.1,0,0,1,8.65,0h0a6.1,6.1,0,0,1,0,8.61L178,332.61A6.1,6.1,0,0,1,169.35,332.6Z" transform="translate(-0.04)"/><rect class="cls-4" x="240.99" y="151.47" width="94.58" height="12.35" rx="6.17" ry="6.17"/><rect class="cls-4" x="240.99" y="232.44" width="94.58" height="12.35" rx="6.17" ry="6.17"/><rect class="cls-4" x="240.99" y="313.59" width="94.58" height="12.35" rx="6.17" ry="6.17"/></svg>