<?xml version="1.0" encoding="utf-8"?>
<!-- Generator: Adobe Illustrator 21.1.0, SVG Export Plug-In . SVG Version: 6.00 Build 0)  -->
<svg version="1.1" id="Layer_1" xmlns="http://www.w3.org/2000/svg" xmlns:xlink="http://www.w3.org/1999/xlink" x="0px" y="0px"
	 viewBox="0 0 511.9 511.9" style="enable-background:new 0 0 511.9 511.9;" xml:space="preserve">
<style type="text/css">
	.st0{fill:#CCD0D2;}
	.st1{fill:#A1ABAF;}
</style>
<g>
	<g>
		<path class="st0" d="M117.7,474.6h220.5c98.3-40.2,112.3-139.3,113.1-232.7c0-5.2-4.2-9.4-9.3-9.4H228h-214
			c-5.2,0-9.4,4.2-9.3,9.4C5.4,335.4,19.4,434.4,117.7,474.6L117.7,474.6z"/>
		<path class="st0" d="M228,167.6c-2.4,0-4.8-0.9-6.6-2.8C207,150.2,199.8,135,200,119.7c0.2-14.9,7.5-29.3,21.5-42.6
			c10.5-9.8,15.8-19.7,15.9-29.7c0.1-10.3-5.3-20.8-16-31.4c-3.7-3.6-3.7-9.5-0.1-13.2c3.6-3.7,9.5-3.7,13.2-0.2
			C249,16.9,256.3,32,256.1,47.5c-0.2,15.3-7.5,29.8-21.8,43c-10.2,9.7-15.5,19.7-15.6,29.4c-0.2,10.1,5.2,20.8,15.9,31.7
			c3.6,3.7,3.6,9.6-0.1,13.2C232.7,166.7,230.3,167.6,228,167.6"/>
		<path class="st0" d="M330.1,167.6c-2.4,0-4.8-0.9-6.6-2.8c-14.4-14.6-21.5-29.8-21.3-45.1c0.2-14.9,7.5-29.3,21.5-42.6
			c10.6-9.8,15.9-19.9,16.1-29.9c0.1-10.3-5.2-20.8-15.9-31.2c-3.7-3.6-3.8-9.5-0.2-13.2c3.6-3.7,9.5-3.7,13.2-0.2
			c14.5,14.1,21.7,29.2,21.5,44.7c-0.2,15.3-7.5,29.8-21.9,43.2c-10.2,9.7-15.5,19.7-15.6,29.4c-0.2,10.1,5.2,20.8,15.9,31.7
			c3.6,3.7,3.6,9.6-0.1,13.2C334.9,166.7,332.5,167.6,330.1,167.6"/>
		<path class="st0" d="M134.7,167.6c-2.4,0-4.8-0.9-6.6-2.8c-14.4-14.6-21.5-29.8-21.3-45.1c0.2-14.9,7.5-29.3,21.5-42.6
			c10.6-9.8,15.9-19.9,16.1-29.9c0.1-10.3-5.2-20.8-15.9-31.2c-3.7-3.6-3.8-9.5-0.2-13.2c3.6-3.7,9.5-3.7,13.2-0.2
			c14.5,14.1,21.7,29.2,21.5,44.7c-0.2,15.3-7.6,29.8-21.9,43.2c-10.2,9.7-15.5,19.7-15.6,29.4c-0.2,10.1,5.2,20.8,15.9,31.7
			c3.6,3.7,3.6,9.6-0.1,13.2C139.4,166.7,137,167.6,134.7,167.6"/>
	</g>
	<path class="st1" d="M172.1,456c-0.5,0-1,0-1.6-0.1C96.7,443.3,57,400.8,41.9,318c-0.9-5.1,2.4-9.9,7.5-10.8
		c5.1-1,9.9,2.4,10.8,7.5c13.6,74.9,47.6,111.6,113.4,122.8c5.1,0.9,8.5,5.7,7.6,10.7C180.5,452.8,176.6,456,172.1,456"/>
	<g>
		<path class="st1" d="M451.2,251.3c-1.1,59.6-8.6,120.6-40.5,166.4c54.6-7.4,96.6-54,96.6-110.6v-23.9c0-17.6-14.3-31.9-31.9-31.9
			L451.2,251.3L451.2,251.3z"/>
		<path class="st1" d="M144.2,511.9h-121c-10.3,0-18.6-8.3-18.6-18.6l0,0c0-10.3,8.3-18.6,18.6-18.6h391c10.3,0,18.6,8.3,18.6,18.6
			l0,0c0,10.3-8.3,18.6-18.6,18.6H302.5H144.2z"/>
	</g>
</g>
</svg>
